<svg width="373" height="373" viewBox="0 0 373 373" fill="none" xmlns="http://www.w3.org/2000/svg">
<path d="M85.2678 289.634H264.308" stroke="#4E5A7D" stroke-width="2.238" stroke-miterlimit="10" stroke-linecap="round" stroke-linejoin="round"/>
<path d="M274.379 289.634H292.805" stroke="#4E5A7D" stroke-width="2.238" stroke-miterlimit="10" stroke-linecap="round" stroke-linejoin="round"/>
<path d="M64.9393 289.634H77.8824" stroke="#4E5A7D" stroke-width="2.238" stroke-miterlimit="10" stroke-linecap="round" stroke-linejoin="round"/>
<path d="M299.295 289.634H302.503" stroke="#4E5A7D" stroke-width="2.238" stroke-miterlimit="10" stroke-linecap="round" stroke-linejoin="round"/>
<path d="M190.752 169.006H181.726C181.278 169.006 180.942 168.633 180.942 168.223V149.2C180.942 148.753 181.315 148.417 181.726 148.417H190.752C191.2 148.417 191.535 148.79 191.535 149.2V168.223C191.535 168.633 191.2 169.006 190.752 169.006Z" fill="#4E5A7D"/>
<path d="M190.752 169.006H181.726C181.278 169.006 180.942 168.633 180.942 168.223V149.2C180.942 148.753 181.315 148.417 181.726 148.417H190.752C191.2 148.417 191.535 148.79 191.535 149.2V168.223C191.535 168.633 191.2 169.006 190.752 169.006Z" stroke="#4E5A7D" stroke-width="2.238" stroke-miterlimit="10" stroke-linecap="round" stroke-linejoin="round"/>
<path d="M202.539 156.697H169.939C166.433 156.697 163.56 153.862 163.56 150.319V146.477C163.56 142.971 166.395 140.099 169.939 140.099H202.539C206.045 140.099 208.917 142.933 208.917 146.477V150.319C208.88 153.825 206.045 156.697 202.539 156.697Z" fill="#BCAFAA"/>
<path d="M202.539 153.228H169.939C166.433 153.228 163.56 150.394 163.56 146.85V150.319C163.56 153.825 166.395 156.697 169.939 156.697H202.539C206.045 156.697 208.917 153.863 208.917 150.319V146.85C208.88 150.394 206.045 153.228 202.539 153.228Z" fill="#A09592"/>
<path d="M202.539 140.136H169.939C166.433 140.136 163.56 142.971 163.56 146.514V150.319C163.56 150.394 163.56 150.431 163.56 150.506C163.672 147.074 166.47 144.351 169.901 144.351H202.539C205.971 144.351 208.768 147.111 208.88 150.506C208.88 150.431 208.88 150.394 208.88 150.319V146.477C208.88 142.971 206.045 140.136 202.539 140.136Z" fill="#D1CAC7"/>
<path d="M202.539 156.697H169.939C166.433 156.697 163.56 153.862 163.56 150.319V146.477C163.56 142.971 166.395 140.099 169.939 140.099H202.539C206.045 140.099 208.917 142.933 208.917 146.477V150.319C208.88 153.825 206.045 156.697 202.539 156.697Z" stroke="#4E5A7D" stroke-width="2.238" stroke-miterlimit="10" stroke-linecap="round" stroke-linejoin="round"/>
<path d="M222.419 169.617L216.605 166.26L210.637 176.597L216.451 179.954L222.419 169.617Z" fill="#4E5A7D"/>
<path d="M222.419 169.617L216.605 166.26L210.637 176.597L216.451 179.954L222.419 169.617Z" stroke="#4E5A7D" stroke-width="2.238" stroke-miterlimit="10" stroke-linecap="round" stroke-linejoin="round"/>
<path d="M223.8 170.424L215.221 165.463C213.431 164.418 212.834 162.18 213.878 160.39L214.177 159.868C215.221 158.077 217.459 157.48 219.249 158.525L227.828 163.486C229.619 164.53 230.216 166.768 229.171 168.559L228.873 169.081C227.866 170.834 225.59 171.468 223.8 170.424Z" fill="#E08484"/>
<path d="M223.8 170.424L215.221 165.463C213.431 164.418 212.834 162.18 213.878 160.39L214.177 159.868C215.221 158.077 217.459 157.48 219.249 158.525L227.828 163.486C229.619 164.53 230.216 166.768 229.171 168.559L228.873 169.081C227.866 170.834 225.59 171.468 223.8 170.424Z" fill="#E08484"/>
<path d="M213.468 162.367L213.766 161.845C214.811 160.054 217.049 159.457 218.839 160.502L227.418 165.463C228.425 166.059 229.059 167.029 229.246 168.074C230.178 166.321 229.581 164.083 227.828 163.075L219.249 158.115C217.459 157.07 215.184 157.704 214.177 159.457L213.878 159.98C213.431 160.763 213.281 161.621 213.431 162.441C213.431 162.441 213.431 162.404 213.468 162.367Z" fill="#E99697"/>
<path d="M223.8 170.424L215.221 165.463C213.431 164.418 212.834 162.18 213.878 160.39L214.177 159.868C215.221 158.077 217.459 157.48 219.249 158.525L227.828 163.486C229.619 164.53 230.216 166.768 229.171 168.559L228.873 169.081C227.866 170.834 225.59 171.468 223.8 170.424Z" stroke="#4E5A7D" stroke-width="2.238" stroke-miterlimit="10" stroke-linecap="round" stroke-linejoin="round"/>
<path d="M156.562 179.987L162.376 176.63L156.408 166.293L150.594 169.65L156.562 179.987Z" fill="#4E5A7D"/>
<path d="M156.562 179.987L162.376 176.63L156.408 166.293L150.594 169.65L156.562 179.987Z" stroke="#4E5A7D" stroke-width="2.238" stroke-miterlimit="10" stroke-linecap="round" stroke-linejoin="round"/>
<path d="M149.2 170.424L157.779 165.463C159.569 164.418 160.166 162.18 159.122 160.39L158.823 159.868C157.779 158.077 155.541 157.481 153.751 158.525L145.172 163.486C143.381 164.53 142.784 166.768 143.829 168.559L144.127 169.081C145.134 170.834 147.41 171.468 149.2 170.424Z" fill="#E08484"/>
<path d="M149.2 170.424L157.779 165.463C159.569 164.418 160.166 162.18 159.122 160.39L158.823 159.868C157.779 158.077 155.541 157.481 153.751 158.525L145.172 163.486C143.381 164.53 142.784 166.768 143.829 168.559L144.127 169.081C145.134 170.834 147.41 171.468 149.2 170.424Z" fill="#E08484"/>
<path d="M145.321 165.836L153.9 160.875C155.69 159.83 157.966 160.465 158.973 162.218L159.271 162.74C159.346 162.889 159.42 163.076 159.495 163.225C159.756 162.292 159.644 161.285 159.122 160.39L158.823 159.868C157.779 158.077 155.541 157.481 153.751 158.525L145.172 163.486C143.568 164.418 142.896 166.395 143.568 168.074C143.829 167.179 144.426 166.358 145.321 165.836Z" fill="#E99697"/>
<path d="M149.2 170.424L157.779 165.463C159.569 164.418 160.166 162.18 159.122 160.39L158.823 159.868C157.779 158.077 155.541 157.481 153.751 158.525L145.172 163.486C143.381 164.53 142.784 166.768 143.829 168.559L144.127 169.081C145.134 170.834 147.41 171.468 149.2 170.424Z" stroke="#4E5A7D" stroke-width="2.238" stroke-miterlimit="10" stroke-linecap="round" stroke-linejoin="round"/>
<path d="M202.949 140.248V156.697" stroke="#4E5A7D" stroke-width="2.238" stroke-miterlimit="10" stroke-linecap="round" stroke-linejoin="round"/>
<path d="M196.235 140.248V156.697" stroke="#4E5A7D" stroke-width="2.238" stroke-miterlimit="10" stroke-linecap="round" stroke-linejoin="round"/>
<path d="M189.521 140.248V156.697" stroke="#4E5A7D" stroke-width="2.238" stroke-miterlimit="10" stroke-linecap="round" stroke-linejoin="round"/>
<path d="M182.807 140.248V156.697" stroke="#4E5A7D" stroke-width="2.238" stroke-miterlimit="10" stroke-linecap="round" stroke-linejoin="round"/>
<path d="M176.093 140.248V156.697" stroke="#4E5A7D" stroke-width="2.238" stroke-miterlimit="10" stroke-linecap="round" stroke-linejoin="round"/>
<path d="M169.379 140.248V156.697" stroke="#4E5A7D" stroke-width="2.238" stroke-miterlimit="10" stroke-linecap="round" stroke-linejoin="round"/>
<path d="M186.239 289.634C220.579 289.634 248.418 261.796 248.418 227.455C248.418 193.115 220.579 165.276 186.239 165.276C151.898 165.276 124.06 193.115 124.06 227.455C124.06 261.796 151.898 289.634 186.239 289.634Z" fill="#E08484"/>
<path d="M186.239 284.674C152.743 284.674 125.44 258.191 124.134 224.994C124.097 225.814 124.097 226.635 124.097 227.493C124.097 261.846 151.923 289.672 186.276 289.672C220.629 289.672 248.455 261.846 248.455 227.493C248.455 226.672 248.418 225.814 248.418 224.994C247.038 258.153 219.734 284.674 186.239 284.674Z" fill="#D87171"/>
<path d="M186.239 169.342C219.883 169.342 247.299 196.086 248.381 229.507C248.418 228.836 248.418 228.164 248.418 227.493C248.418 193.139 220.592 165.314 186.239 165.314C151.886 165.314 124.06 193.139 124.06 227.493C124.06 228.164 124.06 228.836 124.097 229.507C125.179 196.086 152.557 169.342 186.239 169.342Z" fill="#E99697"/>
<path d="M186.239 276.617C213.39 276.617 235.4 254.606 235.4 227.455C235.4 200.304 213.39 178.294 186.239 178.294C159.088 178.294 137.078 200.304 137.078 227.455C137.078 254.606 159.088 276.617 186.239 276.617Z" fill="#FBE3D5"/>
<path d="M186.239 270.537C160.129 270.537 138.756 250.171 137.189 224.434C137.115 225.441 137.078 226.448 137.078 227.455C137.078 254.61 159.085 276.617 186.239 276.617C213.393 276.617 235.4 254.61 235.4 227.455C235.4 226.448 235.363 225.441 235.288 224.434C233.722 250.171 212.349 270.537 186.239 270.537Z" fill="#FFF4EE"/>
<path d="M186.239 184.598C212.312 184.598 233.647 204.926 235.288 230.589C235.363 229.544 235.4 228.5 235.4 227.455C235.4 200.301 213.393 178.294 186.239 178.294C159.085 178.294 137.078 200.301 137.078 227.455C137.078 228.5 137.115 229.544 137.189 230.589C138.831 204.926 160.166 184.598 186.239 184.598Z" fill="#F9D1BD"/>
<path d="M186.5 226.448V244.949" stroke="#4E5A7D" stroke-width="4.849" stroke-miterlimit="10" stroke-linecap="round" stroke-linejoin="round"/>
<path d="M186.5 226.448V198.995" stroke="#4E5A7D" stroke-width="4.849" stroke-miterlimit="10" stroke-linecap="round" stroke-linejoin="round"/>
<path d="M186.239 276.617C213.39 276.617 235.4 254.606 235.4 227.455C235.4 200.304 213.39 178.294 186.239 178.294C159.088 178.294 137.078 200.304 137.078 227.455C137.078 254.606 159.088 276.617 186.239 276.617Z" stroke="#4E5A7D" stroke-width="2.238" stroke-miterlimit="10" stroke-linecap="round" stroke-linejoin="round"/>
<path d="M186.5 179.749V189.484" stroke="#4E5A7D" stroke-width="3.73" stroke-miterlimit="10" stroke-linecap="round" stroke-linejoin="round"/>
<path d="M186.5 265.464V275.2" stroke="#4E5A7D" stroke-width="3.73" stroke-miterlimit="10" stroke-linecap="round" stroke-linejoin="round"/>
<path d="M234.207 227.455H224.509" stroke="#4E5A7D" stroke-width="3.73" stroke-miterlimit="10" stroke-linecap="round" stroke-linejoin="round"/>
<path d="M148.491 227.455H138.793" stroke="#4E5A7D" stroke-width="3.73" stroke-miterlimit="10" stroke-linecap="round" stroke-linejoin="round"/>
<path d="M221.114 192.841L217.496 196.496" stroke="#4E5A7D" stroke-width="2.238" stroke-miterlimit="10" stroke-linecap="round" stroke-linejoin="round"/>
<path d="M155.504 258.452L151.625 262.368" stroke="#4E5A7D" stroke-width="2.238" stroke-miterlimit="10" stroke-linecap="round" stroke-linejoin="round"/>
<path d="M221.114 262.07L217.496 258.452" stroke="#4E5A7D" stroke-width="2.238" stroke-miterlimit="10" stroke-linecap="round" stroke-linejoin="round"/>
<path d="M155.504 196.496L151.625 192.58" stroke="#4E5A7D" stroke-width="2.238" stroke-miterlimit="10" stroke-linecap="round" stroke-linejoin="round"/>
<path d="M186.5 231.484C189.281 231.484 191.536 229.229 191.536 226.448C191.536 223.667 189.281 221.413 186.5 221.413C183.719 221.413 181.465 223.667 181.465 226.448C181.465 229.229 183.719 231.484 186.5 231.484Z" fill="#FBE3D5"/>
<path d="M186.5 231.484C189.281 231.484 191.536 229.229 191.536 226.448C191.536 223.667 189.281 221.413 186.5 221.413C183.719 221.413 181.465 223.667 181.465 226.448C181.465 229.229 183.719 231.484 186.5 231.484Z" stroke="#4E5A7D" stroke-width="3.357" stroke-miterlimit="10" stroke-linecap="round" stroke-linejoin="round"/>
<path d="M186.5 248.418C188.416 248.418 189.969 246.865 189.969 244.949C189.969 243.033 188.416 241.48 186.5 241.48C184.584 241.48 183.031 243.033 183.031 244.949C183.031 246.865 184.584 248.418 186.5 248.418Z" fill="#FBE3D5"/>
<path d="M186.5 248.418C188.416 248.418 189.969 246.865 189.969 244.949C189.969 243.033 188.416 241.48 186.5 241.48C184.584 241.48 183.031 243.033 183.031 244.949C183.031 246.865 184.584 248.418 186.5 248.418Z" stroke="#4E5A7D" stroke-width="2.238" stroke-miterlimit="10" stroke-linecap="round" stroke-linejoin="round"/>
<path d="M186.239 289.634C220.579 289.634 248.418 261.796 248.418 227.455C248.418 193.115 220.579 165.276 186.239 165.276C151.898 165.276 124.06 193.115 124.06 227.455C124.06 261.796 151.898 289.634 186.239 289.634Z" stroke="#4E5A7D" stroke-width="2.238" stroke-miterlimit="10" stroke-linecap="round" stroke-linejoin="round"/>
<path d="M194.109 105.969C184.672 106.864 175.161 106.864 165.724 105.969C162.068 105.634 159.122 103.433 158.488 100.523C156.846 92.9142 156.846 85.6407 158.488 78.0315C159.122 75.1594 162.068 72.9587 165.724 72.5857C175.161 71.6905 184.672 71.6905 194.109 72.5857C197.765 72.9214 200.711 75.1221 201.345 78.0315C202.987 85.6407 202.987 92.9142 201.345 100.523C200.749 103.433 197.765 105.634 194.109 105.969Z" fill="white"/>
<path d="M194.109 105.969C184.672 106.864 175.161 106.864 165.724 105.969C162.068 105.634 159.122 103.433 158.488 100.523C156.846 92.9142 156.846 85.6407 158.488 78.0315C159.122 75.1594 162.068 72.9587 165.724 72.5857C175.161 71.6905 184.672 71.6905 194.109 72.5857C197.765 72.9214 200.711 75.1221 201.345 78.0315C202.987 85.6407 202.987 92.9142 201.345 100.523C200.749 103.433 197.765 105.634 194.109 105.969Z" stroke="#4E5A7D" stroke-width="2.238" stroke-miterlimit="10" stroke-linecap="round" stroke-linejoin="round"/>
<path d="M178.145 82.0972L187.544 87.17C189.298 88.1398 189.298 90.4897 187.544 91.4595L178.145 96.5323C176.392 97.5021 174.191 96.3085 174.191 94.4062V84.2606C174.154 82.321 176.392 81.1274 178.145 82.0972Z" stroke="#4E5A7D" stroke-width="2.238" stroke-miterlimit="10" stroke-linecap="round" stroke-linejoin="round"/>
<path d="M87.9907 184.934C87.9907 184.934 71.1684 187.507 68.3709 184.672C63.783 180.047 71.5787 178.145 71.0192 173.706C69.8256 164.419 70.3851 153.975 74.0778 149.312C74.1151 149.275 74.1524 149.237 74.1897 149.163C78.6284 143.68 86.7598 142.635 92.4294 146.85C92.4667 146.888 92.5413 146.925 92.5786 146.962C97.3157 150.58 100.449 160.539 101.642 169.827C102.202 174.266 110.221 174.191 106.939 179.786C104.925 183.218 87.9907 184.934 87.9907 184.934Z" fill="white"/>
<path d="M87.9907 184.934C87.9907 184.934 71.1684 187.507 68.3709 184.672C63.783 180.047 71.5787 178.145 71.0192 173.706C69.8256 164.419 70.3851 153.975 74.0778 149.312C74.1151 149.275 74.1524 149.237 74.1897 149.163C78.6284 143.68 86.7598 142.635 92.4294 146.85C92.4667 146.888 92.5413 146.925 92.5786 146.962C97.3157 150.58 100.449 160.539 101.642 169.827C102.202 174.266 110.221 174.191 106.939 179.786C104.925 183.218 87.9907 184.934 87.9907 184.934Z" stroke="#4E5A7D" stroke-width="2.238" stroke-miterlimit="10" stroke-linecap="round" stroke-linejoin="round"/>
<path d="M96.1221 170.722C96.4578 173.296 97.6141 175.198 98.9196 176.616" stroke="#4E5A7D" stroke-width="1.492" stroke-miterlimit="10" stroke-linecap="round" stroke-linejoin="round"/>
<path d="M89.5946 152.333L89.6692 152.408C91.5342 153.825 93.9587 159.01 95.4134 166.358" stroke="#4E5A7D" stroke-width="1.492" stroke-miterlimit="10" stroke-linecap="round" stroke-linejoin="round"/>
<path d="M93.0262 184.299C93.3619 187.022 91.385 189.521 88.6248 189.857C85.8646 190.193 83.3282 188.291 82.9552 185.568L93.0262 184.299Z" fill="white"/>
<path d="M93.0262 184.299C93.3619 187.022 91.385 189.521 88.6248 189.857C85.8646 190.193 83.3282 188.291 82.9552 185.568L93.0262 184.299Z" stroke="#4E5A7D" stroke-width="2.238" stroke-miterlimit="10" stroke-linecap="round" stroke-linejoin="round"/>
<path d="M107.834 170.274L110.557 169.193" stroke="white" stroke-width="0.746" stroke-miterlimit="10" stroke-linecap="round" stroke-linejoin="round"/>
<path d="M105.298 168.596L106.268 165.425" stroke="white" stroke-width="0.746" stroke-miterlimit="10" stroke-linecap="round" stroke-linejoin="round"/>
<path d="M106.566 169.193L109.364 166.022" stroke="white" stroke-width="0.746" stroke-miterlimit="10" stroke-linecap="round" stroke-linejoin="round"/>
<path d="M202.464 71.84L205.672 70.5345" stroke="white" stroke-width="0.746" stroke-miterlimit="10" stroke-linecap="round" stroke-linejoin="round"/>
<path d="M199.555 69.8631L200.637 66.1703" stroke="white" stroke-width="0.746" stroke-miterlimit="10" stroke-linecap="round" stroke-linejoin="round"/>
<path d="M201.01 70.5344L204.255 66.879" stroke="white" stroke-width="0.746" stroke-miterlimit="10" stroke-linecap="round" stroke-linejoin="round"/>
<path d="M299.258 136.555L302.428 135.287" stroke="white" stroke-width="0.746" stroke-miterlimit="10" stroke-linecap="round" stroke-linejoin="round"/>
<path d="M296.311 134.616L297.43 130.886" stroke="white" stroke-width="0.746" stroke-miterlimit="10" stroke-linecap="round" stroke-linejoin="round"/>
<path d="M297.803 135.287L301.048 131.595" stroke="white" stroke-width="0.746" stroke-miterlimit="10" stroke-linecap="round" stroke-linejoin="round"/>
<path d="M65.9464 175.795L65.2377 172.848" stroke="white" stroke-width="0.746" stroke-miterlimit="10" stroke-linecap="round" stroke-linejoin="round"/>
<path d="M63.8203 178.145L59.9784 177.399" stroke="white" stroke-width="0.746" stroke-miterlimit="10" stroke-linecap="round" stroke-linejoin="round"/>
<path d="M64.6036 176.914L61.8061 173.594" stroke="white" stroke-width="0.746" stroke-miterlimit="10" stroke-linecap="round" stroke-linejoin="round"/>
<path d="M291.164 175.161C281.428 175.608 271.656 175.608 261.883 175.161C258.489 175.011 255.766 172.214 255.766 168.82V146.962C255.766 143.53 258.452 140.77 261.883 140.621C271.619 140.173 281.391 140.173 291.164 140.621C294.558 140.77 297.281 143.568 297.281 146.962V168.82C297.281 172.214 294.558 175.011 291.164 175.161Z" fill="white"/>
<path d="M291.164 175.161C281.428 175.608 271.656 175.608 261.883 175.161C258.489 175.011 255.766 172.214 255.766 168.82V146.962C255.766 143.53 258.452 140.77 261.883 140.621C271.619 140.173 281.391 140.173 291.164 140.621C294.558 140.77 297.281 143.568 297.281 146.962V168.82C297.281 172.214 294.558 175.011 291.164 175.161Z" stroke="#4E5A7D" stroke-width="2.238" stroke-miterlimit="10" stroke-linecap="round" stroke-linejoin="round"/>
<path d="M261.436 164.605L270.313 153.154L280.832 160.726L291.388 150.692" stroke="#4E5A7D" stroke-width="2.238" stroke-miterlimit="10" stroke-linecap="round" stroke-linejoin="round"/>
<path d="M261.436 167.067C262.651 167.067 263.636 166.081 263.636 164.866C263.636 163.65 262.651 162.665 261.436 162.665C260.22 162.665 259.235 163.65 259.235 164.866C259.235 166.081 260.22 167.067 261.436 167.067Z" fill="white"/>
<path d="M261.436 167.067C262.651 167.067 263.636 166.081 263.636 164.866C263.636 163.65 262.651 162.665 261.436 162.665C260.22 162.665 259.235 163.65 259.235 164.866C259.235 166.081 260.22 167.067 261.436 167.067Z" stroke="#4E5A7D" stroke-width="2.238" stroke-miterlimit="10" stroke-linecap="round" stroke-linejoin="round"/>
<path d="M270.5 155.69C271.88 155.69 272.999 154.571 272.999 153.191C272.999 151.811 271.88 150.692 270.5 150.692C269.119 150.692 268 151.811 268 153.191C268 154.571 269.119 155.69 270.5 155.69Z" fill="white"/>
<path d="M270.5 155.69C271.88 155.69 272.999 154.571 272.999 153.191C272.999 151.811 271.88 150.692 270.5 150.692C269.119 150.692 268 151.811 268 153.191C268 154.571 269.119 155.69 270.5 155.69Z" stroke="#4E5A7D" stroke-width="2.238" stroke-miterlimit="10" stroke-linecap="round" stroke-linejoin="round"/>
<path d="M280.794 162.665C282.298 162.665 283.517 161.446 283.517 159.942C283.517 158.439 282.298 157.219 280.794 157.219C279.291 157.219 278.072 158.439 278.072 159.942C278.072 161.446 279.291 162.665 280.794 162.665Z" fill="white"/>
<path d="M280.794 162.665C282.298 162.665 283.517 161.446 283.517 159.942C283.517 158.439 282.298 157.219 280.794 157.219C279.291 157.219 278.072 158.439 278.072 159.942C278.072 161.446 279.291 162.665 280.794 162.665Z" stroke="#4E5A7D" stroke-width="2.238" stroke-miterlimit="10" stroke-linecap="round" stroke-linejoin="round"/>
<path d="M291.835 152.818C293.339 152.818 294.558 151.599 294.558 150.095C294.558 148.591 293.339 147.372 291.835 147.372C290.331 147.372 289.112 148.591 289.112 150.095C289.112 151.599 290.331 152.818 291.835 152.818Z" fill="white"/>
<path d="M291.835 152.818C293.339 152.818 294.558 151.599 294.558 150.095C294.558 148.591 293.339 147.372 291.835 147.372C290.331 147.372 289.112 148.591 289.112 150.095C289.112 151.599 290.331 152.818 291.835 152.818Z" stroke="#4E5A7D" stroke-width="2.238" stroke-miterlimit="10" stroke-linecap="round" stroke-linejoin="round"/>
<path d="M296.237 184.635C303.055 184.635 308.583 179.107 308.583 172.289C308.583 165.47 303.055 159.942 296.237 159.942C289.418 159.942 283.89 165.47 283.89 172.289C283.89 179.107 289.418 184.635 296.237 184.635Z" fill="white"/>
<path d="M296.237 184.635C303.055 184.635 308.583 179.107 308.583 172.289C308.583 165.47 303.055 159.942 296.237 159.942C289.418 159.942 283.89 165.47 283.89 172.289C283.89 179.107 289.418 184.635 296.237 184.635Z" fill="white"/>
<path d="M296.237 184.635C303.055 184.635 308.583 179.107 308.583 172.289C308.583 165.47 303.055 159.942 296.237 159.942C289.418 159.942 283.89 165.47 283.89 172.289C283.89 179.107 289.418 184.635 296.237 184.635Z" stroke="#4E5A7D" stroke-width="2.238" stroke-miterlimit="10" stroke-linecap="round" stroke-linejoin="round"/>
<path d="M301.347 165.276C303.51 166.843 304.89 169.379 304.89 172.251C304.89 177.026 301.011 180.905 296.237 180.905C291.462 180.905 287.583 177.063 287.583 172.289C287.583 171.543 287.695 170.797 287.881 170.088" stroke="#4E5A7D" stroke-width="1.865" stroke-miterlimit="10" stroke-linecap="round" stroke-linejoin="round"/>
<path d="M299.817 168.633C300.153 168.969 300.451 169.342 300.675 169.789C302.055 172.251 301.16 175.384 298.698 176.727C297.468 177.399 296.05 177.548 294.819 177.175" stroke="#4E5A7D" stroke-width="1.865" stroke-miterlimit="10" stroke-linecap="round" stroke-linejoin="round"/>
<path d="M113.578 239.503C103.396 228.947 95.8237 216.265 91.7953 202.278" stroke="white" stroke-width="1.119" stroke-miterlimit="10" stroke-linecap="round" stroke-linejoin="round" stroke-dasharray="6.71 6.71"/>
<path d="M279.489 194.669C277.102 209.029 271.059 222.271 262.256 233.61" stroke="white" stroke-width="1.119" stroke-miterlimit="10" stroke-linecap="round" stroke-linejoin="round" stroke-dasharray="6.71 6.71"/>
<path d="M217.496 91.1985C240.809 97.5022 260.578 111.341 273.446 129.618" stroke="white" stroke-width="1.119" stroke-miterlimit="10" stroke-linecap="round" stroke-linejoin="round" stroke-dasharray="6.71 6.71"/>
<path d="M101.978 136.555C111.154 118.688 127.007 104.216 146.626 95.8981" stroke="white" stroke-width="1.119" stroke-miterlimit="10" stroke-linecap="round" stroke-linejoin="round" stroke-dasharray="6.71 6.71"/>
</svg>
